<svg version="1.2" xmlns="http://www.w3.org/2000/svg" viewBox="0 0 400 400" width="500" height="500"><style>.a{fill:#ecece9}</style><path class="a" d="m35.8 227.4c14.1 0 25.9-7.9 25.9-21.2 0-10-7.7-16.3-16.9-18.5v-0.5c8.6-3.1 14.5-8.7 14.5-17.2 0-12.2-10-19.1-23.8-19.1-8.9 0-16.5 3.8-22.5 9.2l5.7 7.2c4.6-4.3 10.1-7.3 16.4-7.3 8 0 13.3 4.2 13.3 10.8 0 7.3-6 12.7-21.8 12.7v8.6c17.8 0 24.2 5.4 24.2 13.5 0 7.7-6.8 12.4-15.7 12.4-8.3 0-14.7-3.9-19.3-8.4l-5.3 7.4c5.1 5.6 13.3 10.4 25.3 10.4zm77.3 0c6.9 0 12.2-1.5 17-3.3l-2.2-8.4c-3.7 1.5-7.6 2.4-12.3 2.4-9.7 0-12.9-4.7-12.9-14.4v-25.1h25.3v-9.2h-25.3v-18h-8.9l-1.4 18-15.1 0.6v8.6h14.6v25.1c0 14.1 5.4 23.7 21.2 23.7zm55.5 0c14 0 26.7-10.9 26.7-29.7 0-18.8-12.7-29.7-26.7-29.7-13.9 0-26.6 10.9-26.6 29.7 0 18.8 12.7 29.7 26.6 29.7zm0-9.4c-9.5 0-15.5-8.1-15.5-20.3 0-12.1 6-20.2 15.5-20.2 9.6 0 15.6 8.1 15.6 20.2 0 12.2-6 20.3-15.6 20.3zm42.5 31.2h10.8v-18.6l-0.6-10.2h0.4c4.4 4.4 10.2 7 15.2 7 12.5 0 24-11.2 24-30.6 0-17.5-7.9-28.8-22-28.8-6.3 0-13 3.5-17.8 8.3h-0.3l-0.9-6.9h-8.8zm23.7-31.3c-3.4 0-8.4-1.6-12.9-5.9v-26.7c4.8-5.4 9.7-7.7 14.1-7.7 9.6 0 13.7 7.6 13.7 19.4 0 13.4-6.4 20.9-14.9 20.9zm42.6 8.1h47.5v-9.4h-17.5v-64.3h-8c-4.6 2.6-10.1 4.5-17.6 5.8v7.1h14.7v51.4h-19.1zm81.5 1.4c7.4 0 14.8-4 20.5-8.6h0.3l0.9 7.2h8.8v-34c0-14.9-7.5-24-22.3-24-9.3 0-18.1 4.2-24 8l4 7.8c5.3-3.3 11.6-6.4 18.2-6.4 9.5 0 13 5.7 13.3 12.6-26.9 2.2-37.7 8.4-37.7 21.1 0 10 7.8 16.3 18 16.3zm3.1-9.1c-5.8 0-10.6-2.3-10.6-8 0-6.8 6.2-11.2 27.2-13v13.5c-5.4 4.7-10.9 7.5-16.6 7.5z"/></svg>